HIERARCHY
ROOT Hips
{
	OFFSET 0.00000 0.00000 0.00000
	CHANNELS 6 Xposition Yposition Zposition Zrotation Yrotation Xrotation 
	JOINT LHipJoint
	{
		OFFSET 0 0 0
		CHANNELS 3 Zrotation Yrotation Xrotation
		JOINT LeftHip
		{
			OFFSET 1.36337 -1.57426 1.11036
			CHANNELS 3 Zrotation Yrotation Xrotation
			JOINT LeftKnee
			{
				OFFSET 2.38468 -6.55187 0.00000
				CHANNELS 3 Zrotation Yrotation Xrotation
				JOINT LeftAnkle
				{
					OFFSET 2.37166 -6.51609 0.00000
					CHANNELS 3 Zrotation Yrotation Xrotation
					JOINT LeftToe
					{
						OFFSET 0.29078 -0.79891 2.01393
						CHANNELS 3 Zrotation Yrotation Xrotation
						End Site
						{
							OFFSET 0.00000 -0.00000 1.07924
						}
					}
				}
			}
		}
	}
	JOINT RHipJoint
	{
		OFFSET 0 0 0
		CHANNELS 3 Zrotation Yrotation Xrotation
		JOINT RightHip
		{
			OFFSET -1.36349 -1.57426 1.11036
			CHANNELS 3 Zrotation Yrotation Xrotation
			JOINT RightKnee
			{
				OFFSET -2.29562 -6.30717 0.00000
				CHANNELS 3 Zrotation Yrotation Xrotation
				JOINT RightAnkle
				{
					OFFSET -2.40985 -6.62100 0.00000
					CHANNELS 3 Zrotation Yrotation Xrotation
					JOINT RightToe
					{
						OFFSET -0.23197 -0.63733 1.92232
						CHANNELS 3 Zrotation Yrotation Xrotation
						End Site
						{
							OFFSET -0.00000 -0.00000 1.01562
						}
					}
				}
			}
		}
	}
	JOINT lowerback
	{
		OFFSET 0 0 0
		CHANNELS 3 Zrotation Yrotation Xrotation
		JOINT Chest
		{
			OFFSET -0.08565 2.03602 -0.24562
			CHANNELS 3 Zrotation Yrotation Xrotation
			JOINT Chest2
			{
				OFFSET -0.00036 2.05693 0.00216
				CHANNELS 3 Zrotation Yrotation Xrotation
				JOINT lowerneck
				{
					OFFSET 0 0 0
					CHANNELS 3 Zrotation Yrotation Xrotation
					JOINT Neck
					{
						OFFSET -0.03664 1.69515 0.31789
						CHANNELS 3 Zrotation Yrotation Xrotation
						JOINT Head
						{
							OFFSET 0.00932 1.70181 -0.46013
							CHANNELS 3 Zrotation Yrotation Xrotation
							End Site
							{
								OFFSET 0.01243 1.77620 -0.19377
							}
						}
					}
				}
				JOINT LeftCollar
				{
					OFFSET 0 0 0
					CHANNELS 3 Zrotation Yrotation Xrotation
					JOINT LeftShoulder
					{
						OFFSET 3.74344 0.81315 -0.36647
CHANNELS 3 Zrotation Xrotation Yrotation
						JOINT LeftElbow
						{
OFFSET 0 -4.971850 -0.000000
CHANNELS 3 Zrotation Xrotation Yrotation
							JOINT LeftWrist
							{
OFFSET 0 -3.358110 0.000000
CHANNELS 3 Zrotation Xrotation Yrotation
								JOINT lhand
								{
									OFFSET 0 0 0
CHANNELS 3 Zrotation Xrotation Yrotation
									JOINT LFingers
									{
OFFSET 0 -0.622780 0.000000
CHANNELS 3 Zrotation Xrotation Yrotation
										End Site
										{
OFFSET 0 -0.502100 0.000000
										}
									}
								}
								JOINT LThumb
								{
OFFSET 0 0.000000 0.000000
CHANNELS 3 Zrotation Xrotation Yrotation
									End Site
									{
OFFSET 0 -0.509760 0.509760
									}
								}
							}
						}
					}
				}
				JOINT RightCollar
				{
					OFFSET 0 0 0
					CHANNELS 3 Zrotation Yrotation Xrotation
					JOINT RightShoulder
					{
						OFFSET -3.75385 0.50666 -0.06525
CHANNELS 3 Zrotation Xrotation Yrotation
						JOINT RightElbow
						{
OFFSET 0 -4.964930 -0.000000
CHANNELS 3 Zrotation Xrotation Yrotation
							JOINT RightWrist
							{
OFFSET 0 -3.349290 0.000000
CHANNELS 3 Zrotation Xrotation Yrotation
								JOINT rhand
								{
									OFFSET 0 0 0
CHANNELS 3 Zrotation Xrotation Yrotation
									JOINT RFingers
									{
OFFSET 0 -0.638040 0.000000
CHANNELS 3 Zrotation Xrotation Yrotation
										End Site
										{
OFFSET 0 -0.514410 0.000000
										}
									}
								}
								JOINT RThumb
								{
OFFSET 0 0.000000 0.000000
CHANNELS 3 Zrotation Xrotation Yrotation
									End Site
									{
OFFSET 0 -0.522260 0.522260
									}
								}
							}
						}
					}
				}
			}
		}
	}
}
MOTION
Frames: 8
Frame Time: 0.008333333333333333
-21.639200 16.779000 -1.243100 176.582000 35.516800 -146.903000 0.000000 0.000000 0.000000 -15.419900 -10.463900 -37.667400 1.426900 7.553400 21.365700 0.294900 22.057100 -32.990100 1.088700 -6.631200 -18.627200 0.000000 0.000000 0.000000 35.537700 -31.836900 -55.944000 -0.007500 -0.558400 1.534500 0.000700 8.996800 12.809400 -2.154700 -9.181100 26.363400 -3.282700 -0.218700 -43.519300 -1.033900 2.927900 -2.803900 2.213400 1.570400 17.667400 12.635600 14.637300 -14.430700 -12.091400 21.347300 20.166000 -2.845400 9.737800 11.655900 -0.000000 0.000000 0.000000 1.189900 -5.078600 -21.202200 9.856200 -16.514400 1.433800 26.350200 -0.169500 10.740000 0.000000 0.000000 0.000000 -7.125000 0.000000 0.000000 -0.510600 18.028800 -0.327500 -0.000000 0.000000 0.000000 -4.894400 5.007300 27.142000 -29.398700 -40.372400 -11.018000 31.729800 -36.566500 23.883500 0.000000 0.000000 0.000000 7.125000 0.000000 -0.000000 54.433900 46.344800 -2.600700
-21.601769 16.794989 -1.215250 177.501012 35.228847 -146.579566 0.000000 0.000000 0.000000 -13.433761 -12.235686 -36.625180 1.400284 7.485571 21.162212 0.426699 23.174636 -35.164907 0.826781 -5.799977 -16.205574 0.000000 0.000000 0.000000 36.278831 -31.883136 -55.354080 -0.007136 -0.522933 1.437059 0.652187 15.207818 11.681246 -0.143568 -2.441762 6.728175 -2.399139 -0.006545 -43.130691 -0.784952 2.680018 -2.875264 1.896667 1.521842 17.483521 12.720937 14.584444 -14.288955 -12.248347 21.323562 20.160985 -2.925471 9.728788 11.656063 0.000000 0.000000 0.000000 0.844953 -4.970586 -22.125672 9.980384 -16.708816 1.469263 26.662231 -1.500152 11.160116 0.000000 0.000000 0.000000 -7.125000 0.000000 0.000000 -0.319451 17.531004 -0.208109 0.000000 0.000000 0.000000 -5.023730 5.434310 28.390020 -28.733641 -39.782613 -10.589924 25.449889 -29.979489 22.744481 0.000000 0.000000 0.000000 7.125000 0.000000 0.000000 49.380631 46.511554 -2.434936
-21.556675 16.797862 -1.184108 178.535439 35.020792 -146.325773 0.000000 0.000000 0.000000 -11.819907 -12.889724 -36.044220 1.430600 7.562669 21.393523 0.605854 23.453585 -36.485823 0.719936 -5.421808 -15.115620 0.000000 0.000000 0.000000 36.219478 -33.176717 -53.519756 0.000000 0.000000 0.000000 0.604100 14.986798 12.280212 -0.144760 -2.451751 6.756032 -1.382681 0.309612 -42.721341 -0.601962 2.507731 -2.859743 1.473255 1.503568 17.398429 13.000528 14.506159 -14.035674 -12.462697 21.196023 19.979883 -3.084020 9.686423 11.584950 0.000000 0.000000 0.000000 0.714097 -4.870084 -23.280286 10.076687 -16.859476 1.497115 26.959409 -3.127341 11.990323 0.000000 0.000000 0.000000 -7.125000 0.000000 0.000000 -0.171003 16.577704 -0.115203 0.000000 0.000000 0.000000 -4.927848 5.930143 29.542091 -28.231673 -39.328070 -10.270367 19.038379 -24.175630 22.822383 0.000000 0.000000 0.000000 7.125000 0.000000 0.000000 44.702696 47.557115 -3.470252
-21.500636 16.798309 -1.146996 179.717159 34.630497 -146.057851 0.000000 0.000000 0.000000 -10.421821 -12.573466 -35.771482 1.467293 7.654727 21.670190 0.730460 23.121691 -36.753159 0.688070 -5.302846 -14.774394 0.000000 0.000000 0.000000 37.205333 -33.129501 -52.822243 0.000000 0.000000 0.000000 0.638188 15.206656 12.061053 -0.141049 -2.418944 6.665112 -0.335828 0.535882 -42.288202 -0.266756 2.180827 -2.792302 1.126415 1.414124 17.356388 13.089440 14.442351 -14.024652 -12.529816 21.105161 20.011842 -3.139190 9.644358 11.602070 0.000000 0.000000 0.000000 0.526026 -4.788189 -24.275564 10.199719 -17.051234 1.533035 26.737539 -3.653871 12.498384 0.000000 0.000000 0.000000 -7.125000 0.000000 0.000000 -0.362059 16.040378 -0.247865 0.000000 0.000000 0.000000 -5.011523 6.383350 31.291928 -27.639637 -38.780799 -9.897730 10.721270 -17.596493 23.638265 0.000000 0.000000 0.000000 7.125000 0.000000 0.000000 38.456464 49.502699 -4.744931
-21.433257 16.805009 -1.107856 180.941449 33.994250 -145.641077 0.000000 0.000000 0.000000 -8.983949 -12.021728 -35.873585 1.528411 7.805313 22.124364 0.705498 22.800476 -36.246155 0.617327 -5.022174 -13.973013 0.000000 0.000000 0.000000 38.536355 -33.142528 -52.346099 0.000000 0.000000 0.000000 0.686364 15.500130 11.686945 -0.106161 -2.085371 5.742292 0.693265 0.628886 -42.007822 0.211562 1.696576 -2.733108 0.875560 1.260348 17.339508 12.546317 14.436599 -14.282775 -11.850833 20.995116 20.188007 -2.837576 9.601176 11.545616 0.000000 0.000000 0.000000 0.237847 -4.695518 -25.058434 10.408544 -17.375864 1.594916 25.885367 -3.373108 12.580720 0.000000 0.000000 0.000000 -7.125000 0.000000 0.000000 -0.955968 16.049134 -0.654607 0.000000 0.000000 0.000000 -5.336899 6.478313 33.405119 -26.725809 -37.911531 -9.332033 1.607921 -10.722202 25.346637 0.000000 0.000000 0.000000 7.125000 0.000000 0.000000 31.701772 52.374864 -6.267049
-21.366761 16.810347 -1.058938 182.319262 33.285620 -145.342421 0.000000 0.000000 0.000000 -7.184967 -11.834536 -35.634244 1.594272 7.963895 22.604572 0.753736 22.845687 -36.553910 0.544449 -4.727192 -13.132092 0.000000 0.000000 0.000000 39.951933 -33.235298 -51.688739 0.000000 0.000000 0.000000 0.727356 15.759166 11.387644 -0.065176 -1.643858 4.522559 1.933500 0.829572 -41.356034 0.639709 1.271861 -2.716624 0.477915 1.146357 17.132005 12.045827 14.431138 -14.412530 -11.043318 20.816147 20.230366 -2.523519 9.549954 11.394168 0.000000 0.000000 0.000000 0.085319 -4.557311 -26.042776 10.648928 -17.747943 1.667465 25.267226 -3.731094 12.718112 0.000000 0.000000 0.000000 -7.125000 0.000000 0.000000 -1.391818 15.969460 -0.955518 0.000000 0.000000 0.000000 -5.450988 6.022341 32.634220 -25.623272 -36.831335 -8.662006 0.323047 -10.534372 26.129320 0.000000 0.000000 0.000000 7.125000 0.000000 0.000000 31.052805 53.270211 -6.829932
-21.297886 16.811840 -1.004534 183.771302 32.547262 -145.168090 0.000000 0.000000 0.000000 -5.393130 -11.424277 -35.290831 1.659968 8.118203 23.073884 0.800108 22.995441 -36.973156 0.621763 -5.039441 -14.022428 0.000000 0.000000 0.000000 41.365075 -33.438135 -50.864036 0.000000 0.000000 0.000000 0.757632 15.957530 11.184307 -0.056466 -1.533213 4.217286 3.277197 1.039623 -40.530481 1.080073 0.834874 -2.695559 0.031359 1.029790 16.850731 12.054661 14.343017 -14.287758 -10.961532 20.664990 20.210298 -2.537285 9.496703 11.334217 0.000000 0.000000 0.000000 -0.040880 -4.378216 -27.124633 10.870782 -18.089823 1.735680 25.294738 -4.568620 12.935739 0.000000 0.000000 0.000000 -7.125000 0.000000 0.000000 -1.387520 15.728291 -0.959429 0.000000 0.000000 0.000000 -5.528597 5.955851 32.052576 -25.345102 -36.553945 -8.494902 -1.146957 -10.154582 30.095701 0.000000 0.000000 0.000000 7.125000 0.000000 0.000000 32.944299 56.883438 -10.525252
-21.223742 16.809254 -0.945505 185.189599 31.808334 -144.923466 0.000000 0.000000 0.000000 -3.628660 -10.910730 -35.118512 1.722880 8.262878 23.515685 0.818553 22.939823 -37.005678 0.703821 -5.361762 -14.943335 0.000000 0.000000 0.000000 42.846085 -33.580167 -50.135996 0.000000 0.000000 0.000000 0.804605 16.268391 10.871801 -0.048022 -1.409953 3.877641 4.612085 1.193945 -39.788554 1.539473 0.368509 -2.690005 -0.397154 0.901481 16.557412 12.025746 14.243778 -14.293174 -10.844481 20.512596 20.339166 -2.522511 9.434875 11.345625 0.000000 0.000000 0.000000 -0.160680 -4.188101 -28.130853 11.097571 -18.437469 1.806773 25.276855 -5.425145 13.249507 0.000000 0.000000 0.000000 -7.125000 0.000000 0.000000 -1.420956 15.387845 -0.993531 0.000000 0.000000 0.000000 -5.620089 6.045075 31.556636 -25.084406 -36.287756 -8.340814 -3.815376 -9.653907 32.928649 0.000000 0.000000 0.000000 7.125000 0.000000 0.000000 32.652633 59.871830 -12.664992
